<?xml version="1.0" encoding="UTF-8" standalone="no"?>
<!DOCTYPE svg PUBLIC "-//W3C//DTD SVG 1.1//EN" "http://www.w3.org/Graphics/SVG/1.1/DTD/svg11.dtd">
<svg width="100%" height="100%" viewBox="0 0 195 195" version="1.1" xmlns="http://www.w3.org/2000/svg" xmlns:xlink="http://www.w3.org/1999/xlink" xml:space="preserve" xmlns:serif="http://www.serif.com/" style="fill-rule:evenodd;clip-rule:evenodd;stroke-linejoin:round;stroke-miterlimit:2;">
    <g>
        <g>
            <path d="M185.818,2.161L128.778,2.161C123.807,2.161 119.778,6.19 119.778,11.161C119.778,16.132 123.807,20.161 128.778,20.161L164.09,20.161L77.79,106.461C74.275,109.976 74.275,115.674 77.79,119.189C79.548,120.946 81.851,121.825 84.154,121.825C86.457,121.825 88.76,120.946 90.518,119.189L176.818,32.889L176.818,68.202C176.818,73.173 180.847,77.202 185.818,77.202C190.789,77.202 194.818,73.173 194.818,68.202L194.818,11.162C194.818,6.19 190.789,2.161 185.818,2.161Z" style="fill:rgb(0,48,151);fill-rule:nonzero;"/>
            <path d="M149,77.201C144.029,77.201 140,81.23 140,86.201L140,174.657L18,174.657L18,52.657L111.778,52.657C116.749,52.657 120.778,48.628 120.778,43.657C120.778,38.686 116.749,34.657 111.778,34.657L9,34.657C4.029,34.657 0,38.686 0,43.657L0,183.657C0,188.628 4.029,192.657 9,192.657L149,192.657C153.971,192.657 158,188.628 158,183.657L158,86.201C158,81.23 153.971,77.201 149,77.201Z" style="fill:rgb(0,48,151);fill-rule:nonzero;"/>
        </g>
    </g>
</svg>
