<svg xmlns="http://www.w3.org/2000/svg" width="27.392" height="29.069" viewBox="0 0 27.392 29.069"><g transform="translate(-14.769)"><g transform="translate(14.769)"><path d="M42,7.867,34.6.171A.559.559,0,0,0,34.2,0H23.158a2.242,2.242,0,0,0-2.24,2.239v7.823H16.445a1.678,1.678,0,0,0-1.676,1.676v8.388A1.678,1.678,0,0,0,16.445,21.8h4.473v5.032a2.24,2.24,0,0,0,2.24,2.235H39.921a2.24,2.24,0,0,0,2.24-2.234V8.254A.559.559,0,0,0,42,7.867Zm-7.67-6.357,6.079,6.317H34.335ZM16.445,20.684a.558.558,0,0,1-.558-.558V11.738a.558.558,0,0,1,.558-.558h15.1a.558.558,0,0,1,.558.558v8.388a.558.558,0,0,1-.558.558Zm24.6,6.151a1.12,1.12,0,0,1-1.122,1.116H23.158a1.121,1.121,0,0,1-1.122-1.117V21.8h9.5a1.678,1.678,0,0,0,1.676-1.676V11.738a1.678,1.678,0,0,0-1.676-1.676h-9.5V2.239a1.123,1.123,0,0,1,1.122-1.121H33.217V8.385a.559.559,0,0,0,.559.559h7.267v17.89Z" transform="translate(-14.769)" fill="#003097"/></g><g transform="translate(18.052 13.646)"><path d="M76,240.888a1.259,1.259,0,0,0-.691-.47,5.643,5.643,0,0,0-1.153-.072H72.6v4.8h.97v-1.811H74.2a5.528,5.528,0,0,0,1.006-.069,1.4,1.4,0,0,0,.5-.228,1.316,1.316,0,0,0,.408-.473,1.566,1.566,0,0,0,.161-.744A1.491,1.491,0,0,0,76,240.888Zm-.83,1.322a.636.636,0,0,1-.3.236,2.507,2.507,0,0,1-.766.075h-.531v-1.363h.468a4.656,4.656,0,0,1,.7.033.67.67,0,0,1,.39.213.62.62,0,0,1,.154.432A.645.645,0,0,1,75.166,242.21Z" transform="translate(-72.596 -240.346)" fill="#003097"/></g><g transform="translate(22.523 13.646)"><g transform="translate(0)"><path d="M155.214,241.658a2.1,2.1,0,0,0-.459-.778,1.606,1.606,0,0,0-.724-.442,3.46,3.46,0,0,0-.914-.092h-1.772v4.8h1.824a2.931,2.931,0,0,0,.858-.1,1.7,1.7,0,0,0,.681-.383,2.118,2.118,0,0,0,.514-.848,3.156,3.156,0,0,0,.147-1.022A3.544,3.544,0,0,0,155.214,241.658Zm-.943,1.972a1.016,1.016,0,0,1-.254.463.9.9,0,0,1-.391.2,2.64,2.64,0,0,1-.586.046h-.724v-3.18h.436a4.393,4.393,0,0,1,.8.046.922.922,0,0,1,.449.226,1.1,1.1,0,0,1,.275.465,2.868,2.868,0,0,1,.1.855A3.132,3.132,0,0,1,154.271,243.63Z" transform="translate(-151.346 -240.346)" fill="#003097"/></g></g><g transform="translate(27.377 13.646)"><g transform="translate(0)"><path d="M240.138,241.158v-.812h-3.292v4.8h.97v-2.041h2v-.812h-2v-1.137Z" transform="translate(-236.846 -240.346)" fill="#003097"/></g></g></g></svg>