<svg xmlns="http://www.w3.org/2000/svg" width="35.008" height="29.069" viewBox="0 0 35.008 29.069"><g transform="translate(0 0)"><path d="M32.542,47.859H26.006V44.17a.742.742,0,0,0-.742-.742H9.744A.742.742,0,0,0,9,44.17v3.688H2.466A2.469,2.469,0,0,0,0,50.325V62.142a2.469,2.469,0,0,0,2.466,2.466H9v7.146a.742.742,0,0,0,.742.742h15.52a.742.742,0,0,0,.742-.742V64.608h6.535a2.469,2.469,0,0,0,2.466-2.466V50.325A2.469,2.469,0,0,0,32.542,47.859Zm-6.536,1.485h1.771v2.078H26.006Zm-15.52-4.431H24.521v6.508H10.486ZM7.231,49.343H9v2.078H7.231ZM24.522,71.012H10.486V61.236H24.521v9.776Zm9-8.87h0a.983.983,0,0,1-.981.981H26.006V61.236H27.36a.742.742,0,1,0,0-1.485H7.647a.742.742,0,1,0,0,1.485H9v1.888H2.466a.983.983,0,0,1-.981-.981V50.325a.983.983,0,0,1,.981-.981h3.28v2.82a.742.742,0,0,0,.742.742H28.519a.742.742,0,0,0,.742-.742v-2.82h3.28a.983.983,0,0,1,.981.981Z" transform="translate(0 -43.428)" fill="#003097"/></g><g transform="translate(3.774 11.092)"><circle cx="0.93" cy="0.93" r="0.93" fill="#003097"/></g><g transform="translate(13.081 23.454)"><path d="M195.52,386.456h-3.465a.742.742,0,1,0,0,1.485h3.465a.742.742,0,1,0,0-1.485Z" transform="translate(-191.312 -386.456)" fill="#003097"/></g><g transform="translate(13.081 19.696)"><path d="M199.416,331.483h-7.361a.742.742,0,0,0,0,1.485h7.361a.742.742,0,0,0,0-1.485Z" transform="translate(-191.312 -331.483)" fill="#003097"/></g></svg>